<?xml version="1.0" standalone="no"?> <!DOCTYPE svg PUBLIC "-//W3C//DTD SVG 1.0//EN" "http://www.w3.org/TR/2001/REC-SVG-20010904/DTD/svg10.dtd" > <svg xmlns="http://www.w3.org/2000/svg" width="100%" height="100%">
<defs >
<font id="helveticalt75boldoutline" horiz-adv-x="487" ><font-face
    font-family="HelveticaNeue LT 75 BdOutline"
    units-per-em="1000"
    panose-1="2 0 5 3 3 0 0 2 0 4"
    ascent="992"
    descent="-229"
    alphabetic="0" />
<missing-glyph horiz-adv-x="500" />
<glyph unicode=" " glyph-name="space" horiz-adv-x="316" />
<glyph unicode="!" glyph-name="exclam" horiz-adv-x="296" d="M68 160H228V0H68V160ZM91 138V22H205V138H91ZM65 520V714H231V520L193 209H103L65 520ZM173 231L208 520V692H88V520L123 231H173Z" />
<glyph unicode="$" glyph-name="dollar" horiz-adv-x="632" d="M369 114Q401 119 419 140T438 190Q438 228 418 247T369 272V114ZM346 303Q406 291 433 266T461 194Q461 169 452 150T427 118T391 99T346 92V303ZM265 584Q241 579 224 562T207 513Q207 492 221
474T265 448V584ZM288 418Q229 429 207 456T184 513Q184 550 210 578T288 606V418ZM194 237Q196 181 211 155T265 114V300Q206 315 166 334T100 378T64 433T52 502Q52 545 67 581T110 644T177 687T265 708V805H369V708Q470 695 522 645T575 491H420Q420 525 409
549T369 584V423Q417 413 458 398T531 359T580 299T598 213Q598 170 583 131T538 62T466 13T369 -10V-118H265V-10Q145 1 90 63T34 237H194ZM57 215Q58 161 79 123T132 60T205 24T288 12V-96H346V12Q403 15 445 31T517 75T560 136T575 210Q575 252 561 283T519
337T448 377T346 406V606Q368 606 386 598T416 576T436 546T443 513H552Q552 542 542 572T507 626T444 667T346 686V783H288V686Q238 684 199 669T132 630T90 572T75 500Q75 467 86 440T122 390T187 349T288 316V92Q234 92 204 125T171 215H57Z" />
<glyph unicode="%" glyph-name="percent" horiz-adv-x="1000" d="M750 8Q777 8 804 16T854 44T890 100T904 189Q904 243 890 278T854 333T805 362T750 370Q723 370 696 362T646 334T610 278T596 189Q596 135 610 100T646 45T695 16T750 8ZM750 -10Q670 -10 624
41T578 189Q578 286 624 337T750 388Q830 388 876 337T922 189Q922 92 876 41T750 -10ZM750 74Q763 74 773 78T792 96T804 131T809 189Q809 225 805 247T792 282T774 299T750 304Q737 304 727 300T708 282T696 247T691 189Q691 153 695 131T708 96T726 79T750 74ZM750
56Q733 56 719 62T695 83T679 124T673 189Q673 228 679 253T695 294T719 316T750 322Q766 322 780 316T805 295T821 254T827 189Q827 150 821 125T805 84T781 62T750 56ZM250 328Q277 328 304 336T354 364T390 420T404 509Q404 563 390 598T354 653T305 682T250
690Q223 690 196 682T146 654T110 598T96 509Q96 455 110 420T146 365T195 336T250 328ZM250 310Q170 310 124 361T78 509Q78 606 124 657T250 708Q330 708 376 657T422 509Q422 412 376 361T250 310ZM352 2L728 712H657L281 2H352ZM252 -16L647 730H757L362 -16H252ZM250
394Q263 394 273 398T292 416T304 451T309 509Q309 545 305 567T292 602T274 619T250 624Q237 624 227 620T208 602T196 567T191 509Q191 473 195 451T208 416T226 399T250 394ZM250 376Q233 376 219 382T195 403T179 444T173 509Q173 548 179 573T195 614T219
636T250 642Q266 642 280 636T305 615T321 574T327 509Q327 470 321 445T305 404T281 382T250 376Z" />
<glyph unicode="&amp;" glyph-name="ampersand" horiz-adv-x="685" d="M406 170Q399 162 388 150T361 127T324 108T276 100Q228 100 196 130T164 208Q164 232 174 250T200 283T235 309T274 332L406 170ZM267 303Q252 294 238 285T212 265T194 240T187 208Q187
170 211 146T276 122Q308 122 332 136T376 170L267 303ZM310 439Q300 451 289 464T267 491T250 522T243 555Q243 590 265 610T320 630Q341 630 356 623T380 604T393 578T398 549Q398 526 388 509T364 478T334 455T310 439ZM315 466Q337 481 356 499T375 549Q375
575 361 591T320 608Q298 608 282 594T266 556Q266 534 281 512T315 466ZM532 170Q583 244 599 332H507Q506 326 502 313T493 286T482 259T472 242L362 376Q389 391 412 407T452 444T478 489T488 548Q488 584 475 612T440 659T388 689T324 700Q269 700 235 683T181
641T154 591T147 548Q147 528 153 508T170 470T193 434T218 402Q197 392 169 376T116 337T73 282T55 206Q55 168 67 132T105 69T171 25T267 8Q324 8 375 31T464 97L527 22H663L532 170ZM711 0H516L462 64Q425 27 372 7T267 -14Q213 -14 170 2T96 48T49 117T32 206Q32
249 48 281T87 338T137 380T185 410Q179 417 169 430T149 463T132 504T124 549Q124 572 132 602T163 658T225 703T324 722Q368 722 403 708T462 669T498 613T511 549Q511 488 478 444T395 369L469 281Q472 287 475 296T479 316T482 337T484 354H627Q626 341 621
319T607 270T586 218T558 170L711 0Z" />
<glyph unicode="(" glyph-name="parenleft" horiz-adv-x="296" d="M174 -176Q112 -86 76 32T39 277Q39 404 75 522T174 730H311Q282 682 260 627T224 513T202 395T194 277Q194 219 201 160T223 42T260 -72T311 -176H174ZM184 708Q149 648 126 593T88 484T68 380T62
277Q62 226 68 175T88 70T125 -38T184 -154H272Q217 -42 194 65T171 277Q171 382 194 489T272 708H184Z" />
<glyph unicode=")" glyph-name="parenright" horiz-adv-x="296" d="M122 730Q184 640 220 522T257 277Q257 150 221 32T122 -176H-15Q14 -128 36 -73T72 41T94 159T102 277Q102 335 95 394T73 512T36 626T-15 730H122ZM112 -154Q147 -94 170 -39T208 70T228 174T234
277Q234 328 228 379T208 484T171 592T112 708H24Q79 596 102 489T125 277Q125 172 102 65T24 -154H112Z" />
<glyph unicode="*" glyph-name="asterisk" horiz-adv-x="406" d="M86 420L129 387L203 491L277 387L320 420L246 518L364 557L345 609L232 566V692H174V566L61 609L42 557L160 518L86 420ZM255 714V597L360 637L393 543L282 506L351 415L272 355L203 452L134 355L55
415L124 506L13 543L46 637L151 597V714H255Z" />
<glyph unicode="," glyph-name="comma" horiz-adv-x="316" d="M96 148V22H165Q163 -26 146 -50T96 -89V-131Q164 -110 192 -69T220 32V148H96ZM73 170H243V33Q243 -47 200 -94T73 -160V-74Q105 -64 122 -44T142 0H73V170Z" />
<glyph unicode="-" glyph-name="hyphen" horiz-adv-x="407" d="M69 324V226H338V324H69ZM46 346H361V204H46V346Z" />
<glyph unicode="." glyph-name="period" horiz-adv-x="316" d="M96 22H220V148H96V22ZM73 170H243V0H73V170Z" />
<glyph unicode="/" glyph-name="slash" horiz-adv-x="370" d="M5 6H103L365 708H267L5 6ZM251 730H397L119 -16H-27L251 730Z" />
<glyph unicode="0" glyph-name="zero" horiz-adv-x="632" d="M47 349Q47 523 118 615T316 708Q442 708 513 616T585 349Q585 175 514 83T316 -10Q190 -10 119 82T47 349ZM70 349Q70 265 88 202T138 97T216 33T316 12Q371 12 416 33T493 96T544 202T562 349Q562
433 544 496T494 601T416 665T316 686Q261 686 216 665T139 602T88 496T70 349ZM179 349Q179 477 211 538T316 600Q388 600 420 539T453 349Q453 221 421 160T316 98Q244 98 212 159T179 349ZM202 349Q202 295 207 252T225 180T260 136T316 120Q350 120 372 135T407
180T425 252T430 349Q430 403 425 446T407 518T372 562T316 578Q282 577 260 562T225 517T207 446T202 349Z" />
<glyph unicode="1" glyph-name="one" horiz-adv-x="632" d="M298 468V22H418V686H329Q314 621 268 585T130 548V468H298ZM275 0V446H107V570Q149 570 183 576T244 597T286 639T309 708H441V0H275Z" />
<glyph unicode="2" glyph-name="two" horiz-adv-x="632" d="M57 445Q57 503 74 551T125 635T208 689T322 708Q380 708 427 693T507 649T557 580T575 490Q575 456 568 427T544 370T499 317T427 264L310 190Q269 164 254 142H578V0H41Q41 87 77 156T205 283L335
366Q373 390 394 416T415 479Q415 517 392 544T321 572Q289 572 268 562T233 532T213 485T207 423H57V445ZM184 445Q184 474 191 501T215 548T258 581T323 594Q347 594 367 587T404 565T429 529T438 479Q438 433 412 402T333 338L222 268Q175 239 146 209T99 147T74
85T64 22H555V120H216Q223 141 242 164T305 214L418 285Q457 309 482 332T523 381T545 432T552 490Q552 578 492 632T322 686Q255 686 209 665T134 611T93 538T80 457V445H184Z" />
<glyph unicode="3" glyph-name="three" horiz-adv-x="632" d="M250 427H271Q341 427 373 444T406 503Q406 536 382 557T317 578Q264 578 237 550T209 459H59Q59 515 75 561T124 639T204 690T317 708Q377 708 422 693T498 651T545 588T561 511Q561 463 540 430T483
374Q531 356 557 316T584 221Q584 173 567 131T515 57T430 8T313 -10Q184 -10 113 54T41 239V257H196Q196 126 309 126Q364 126 394 150T424 220Q424 261 396 285T318 309H250V427ZM313 331Q373 331 410 304T447 220Q447 199 440 178T417 141T375 114T311 104Q245
104 212 137T173 235H64Q64 132 126 72T313 12Q362 12 406 24T485 62T540 128T561 223Q561 276 530 314T441 374Q495 399 516 433T538 512Q538 550 523 582T479 637T409 673T316 686Q201 686 146 631T82 481H186Q191 539 225 569T313 600Q365 600 397 573T429 502Q429
458 397 432T296 405H273V331H313Z" />
<glyph unicode="4" glyph-name="four" horiz-adv-x="632" d="M64 174H365V22H479V174H568V272H479V686H362L64 296V174ZM41 303L350 708H502V294H591V152H502V0H342V152H41V303ZM342 294V490H340L196 294H342ZM150 272L365 560V272H150Z" />
<glyph unicode="5" glyph-name="five" horiz-adv-x="632" d="M132 698H547V562H251L230 446Q259 463 288 469T355 476Q405 476 447 461T519 415T567 341T584 240Q584 192 567 147T516 67T431 11T311 -10Q254 -10 206 3T121 44T64 115T41 220H196Q196 196 204 178T228
146T262 127T304 120Q361 120 392 153T424 241Q424 272 414 294T386 331T348 351T306 358Q270 358 245 344T200 303H64L132 698ZM89 325H188Q208 351 239 365T306 380Q335 380 361 371T406 345T436 302T447 241Q447 212 439 186T413 141T368 110T302 98Q277 98
255 106T215 127T186 159T173 198H64Q74 111 134 62T307 12Q367 12 414 29T494 78T544 151T561 241Q561 296 545 336T501 403T432 441T342 454Q324 454 308 452T276 445T241 431T200 408L232 584H524V676H149L89 325Z" />
<glyph unicode="6" glyph-name="six" horiz-adv-x="632" d="M190 236Q190 298 226 337T322 376Q351 376 375 366T416 337T443 293T453 236Q453 206 444 181T417 137T375 109T322 98Q293 98 269 108T227 137T200 180T190 236ZM213 236Q213 209 222 188T246 151T281
128T322 120Q343 120 362 128T397 151T421 187T430 236Q430 263 421 285T397 322T363 346T322 354Q301 354 281 346T246 323T222 285T213 236ZM550 528Q547 548 536 575T500 627T435 669T335 686Q275 686 226 665T143 599T89 489T70 333Q70 248 89 188T143 88T223
31T324 12Q371 12 414 27T490 72T542 144T562 240Q562 288 546 327T502 395T435 440T354 456Q306 456 265 438T179 372Q180 482 218 544T332 606Q415 606 441 528H550ZM423 506Q415 548 391 566T332 584Q300 584 277 571T238 535T214 483T202 422Q237 454 275 466T353
478Q403 478 445 461T519 412T567 337T585 243Q585 189 566 143T512 62T429 9T323 -10Q194 -10 121 77T47 340Q47 434 68 503T127 617T220 685T339 708Q404 708 448 687T520 636T560 570T573 506H423Z" />
<glyph unicode="7" glyph-name="seven" horiz-adv-x="632" d="M65 698H567V568Q510 509 467 442T395 303T351 154T332 0H158Q162 65 178 136T222 279T293 420T391 550H65V698ZM88 572H436Q327 453 263 313T184 22H309Q311 97 329 174T378 324T451 462T544 579V676H88V572Z"
/>
<glyph unicode="8" glyph-name="eight" horiz-adv-x="632" d="M38 206Q38 263 66 306T148 375Q110 398 89 432T68 515Q68 547 82 581T126 643T203 690T316 708Q382 708 429 690T506 644T550 581T564 515Q564 467 543 433T484 375Q537 350 565 307T594 206Q594
167 579 129T531 59T445 9T316 -10Q240 -10 187 9T101 59T53 128T38 206ZM91 512Q91 497 95 479T111 441T141 405T189 373Q119 344 90 300T61 207Q61 172 75 137T119 74T198 29T316 12Q385 12 433 29T512 74T557 136T571 206Q571 256 542 300T443 373Q472 387 491
404T521 441T536 478T541 512Q541 543 527 574T486 630T416 670T316 686Q259 686 217 671T147 630T105 574T91 512ZM175 213Q175 245 187 268T220 306T265 328T316 335Q344 335 370 328T415 305T445 267T457 213Q457 183 446 160T415 122T370 100T316 92Q290 92
265 99T220 121T188 158T175 213ZM198 213Q198 186 208 167T235 137T273 120T316 114Q338 114 359 119T396 136T423 167T434 213Q434 240 424 259T397 290T359 307T316 313Q294 313 273 308T236 290T209 259T198 213ZM190 506Q190 528 200 546T227 578T267 599T316
606Q340 606 362 600T403 582T431 551T442 506Q442 480 432 461T403 430T363 411T316 405Q290 405 267 412T227 432T200 464T190 506ZM213 506Q213 485 222 471T246 446T279 432T316 427Q334 427 352 431T386 446T410 470T419 506Q419 526 410 541T386 565T353
579T316 584Q298 584 280 580T246 566T222 541T213 506Z" />
<glyph unicode="9" glyph-name="nine" horiz-adv-x="632" d="M179 462Q179 492 189 517T216 561T257 589T310 600Q339 600 363 590T404 561T432 518T442 462Q442 433 432 408T405 365T363 337T310 326Q281 326 257 336T216 365T189 408T179 462ZM202 462Q202 436
211 415T235 379T269 356T310 348Q332 348 351 356T386 379T410 415T419 462Q419 489 410 510T386 547T352 570T310 578Q289 578 270 570T235 547T211 511T202 462ZM82 170Q85 150 96 123T132 71T197 29T297 12Q357 12 406 33T489 99T543 209T562 365Q562 450 543
510T489 610T409 667T308 686Q261 686 218 671T142 626T90 554T70 458Q70 411 86 373T130 306T196 262T278 246Q326 246 367 263T453 322Q452 212 414 152T300 92Q216 92 191 170H82ZM209 192Q217 150 241 132T300 114Q331 114 354 127T394 161T418 211T430 272Q394
247 357 235Q338 229 319 227T279 224Q229 224 187 241T113 290T65 363T47 455Q47 509 66 555T120 636T203 689T309 708Q438 708 511 621T585 358Q585 264 564 195T505 81T412 13T293 -10Q228 -10 184 11T112 62T72 128T59 192H209Z" />
<glyph unicode=":" glyph-name="colon" horiz-adv-x="316" d="M96 22H220V148H96V22ZM73 170H243V0H73V170ZM73 524H243V354H73V524ZM96 376H220V502H96V376Z" />
<glyph unicode=";" glyph-name="semicolon" horiz-adv-x="316" d="M96 148V22H165Q163 -26 146 -50T96 -89V-131Q164 -110 192 -69T220 32V148H96ZM73 170H243V33Q243 -47 200 -94T73 -160V-74Q105 -64 122 -44T142 0H73V170ZM73 524H243V354H73V524ZM96 376H220V502H96V376Z"
/>
<glyph unicode="?" glyph-name="question" horiz-adv-x="556" d="M194 160H354V0H194V160ZM217 138V22H331V138H217ZM31 471Q35 601 104 665T289 730Q334 730 376 717T452 678T505 611T525 518Q525 495 521 475T506 434T476 393T427 351Q400 331 384 317T361 288T351
255T349 209H199Q199 252 201 282T215 336T249 385T314 442Q340 462 349 480T359 520Q359 551 341 572T282 594Q241 594 216 565T191 471H31ZM168 493Q168 524 178 547T204 585T240 608T282 616Q327 616 354 593T382 522Q382 505 379 492T367 465T342 436T301 401Q274
380 259 363T235 327T225 286T222 231H326Q326 257 329 274T342 305T368 333T413 369Q463 406 482 439T502 516Q502 555 488 590T447 651T380 692T288 708Q179 708 121 651T54 493H168Z" />
<glyph unicode="A" glyph-name="A" horiz-adv-x="685" d="M451 267H231L342 568L451 267ZM343 506H341L263 289H419L343 506ZM21 22H148L203 181H476L531 22H664L412 692H274L21 22ZM258 714H428L697 0H515L460 159H219L164 0H-12L258 714Z" />
<glyph unicode="B" glyph-name="B" horiz-adv-x="704" d="M210 329H378Q399 329 424 328T471 316T509 285T524 224Q524 185 509 164T472 133T424 122T378 120H210V329ZM233 142H378Q397 142 418 143T458 152T489 176T501 224Q501 255 489 272T459 296T419 305T378
307H233V142ZM210 594H364Q383 594 405 593T448 583T481 555T495 501Q495 466 482 448T448 421T406 411T364 409H210V594ZM233 431H364Q382 431 401 432T435 439T461 460T472 501Q472 528 462 542T436 563T401 571T364 572H233V431ZM86 22H408Q452 22 494 31T570
63T623 122T644 214Q644 257 631 286T598 335T557 366T522 384Q563 413 589 446T615 531Q615 571 602 598T567 644T519 672T468 686T422 691T390 692H86V22ZM63 714H390Q424 714 467 708T548 684T612 630T638 534Q638 508 631 486T613 444T587 411T559 388Q575
381 594 368T629 334T656 283T667 214Q667 157 647 117T592 50T510 12T408 0H63V714Z" />
<glyph unicode="C" glyph-name="C" horiz-adv-x="741" d="M704 289Q704 261 698 228T676 160T637 95T576 39T492 -1T382 -16Q309 -16 246 10T137 85T64 203T37 357Q37 442 63 511T137 628T248 703T389 730Q448 730 504 711T603 656T672 573T698 466H532Q521 525
484 556T389 588Q357 588 325 576T267 537T224 465T207 357Q207 293 223 249T265 178T322 138T382 126Q425 126 454 142T501 183T526 236T534 289H704ZM557 267Q557 261 551 235T526 179T473 127T382 104Q345 104 310 119T246 166T201 245T184 357Q184 421 201
468T246 547T312 594T389 610Q416 610 442 602T491 579T528 540T550 488H675Q675 515 657 552T604 624T515 683T389 708Q321 708 262 685T157 616T86 506T60 357Q60 273 86 208T156 98T258 30T382 6Q447 6 494 22T574 64T627 121T659 181T675 233T681 267H557Z"
/>
<glyph unicode="D" glyph-name="D" horiz-adv-x="741" d="M68 714H362Q437 714 500 693T608 627T678 516T704 357Q704 265 679 198T608 87T500 22T362 0H68V714ZM91 22H362Q436 22 495 44T595 109T659 214T681 357Q681 438 659 500T596 605T495 670T362 692H91V22ZM215
588H348Q457 588 507 528T557 357Q557 247 507 187T348 126H215V588ZM238 148H348Q357 148 374 149T412 156T454 174T493 210T522 269T534 357Q534 409 523 445T494 504T455 539T413 558T375 565T348 566H238V148Z" />
<glyph unicode="E" glyph-name="E" horiz-adv-x="648" d="M86 22H612V132H210V320H560V418H210V588H602V692H86V22ZM63 714H625V566H233V440H583V298H233V154H635V0H63V714Z" />
<glyph unicode="F" glyph-name="F" horiz-adv-x="593" d="M63 714H598V560H233V427H540V279H233V0H63V714ZM86 22H210V301H517V405H210V582H575V692H86V22Z" />
<glyph unicode="G" glyph-name="G" horiz-adv-x="759" d="M610 22H683V371H418V282H574Q574 197 525 151T389 104Q349 104 312 119T247 166T201 245T184 357Q184 421 201 468T246 547T312 594T389 610Q417 610 443 602T492 579T529 540T551 488H676Q676 515 658
552T605 624T515 683T389 708Q321 708 262 685T157 616T86 506T60 357Q60 273 86 208T155 98T255 30T374 6Q410 6 439 12T493 30T541 62T588 108L610 22ZM395 393H706V0H593L576 66Q531 21 484 3T374 -16Q304 -16 243 10T136 85T64 203T37 357Q37 442 63 511T137
628T248 703T389 730Q449 730 504 711T603 656T673 573T699 466H533Q522 525 485 556T389 588Q357 588 325 576T267 537T224 465T207 357Q207 293 223 249T266 178T325 138T389 126Q420 126 449 134T501 160T537 202T551 260H395V393Z" />
<glyph unicode="H" glyph-name="H" horiz-adv-x="741" d="M68 714H238V452H503V714H673V0H503V298H238V0H68V714ZM91 22H215V320H526V22H650V692H526V430H215V692H91V22Z" />
<glyph unicode="I" glyph-name="I" horiz-adv-x="296" d="M86 22H210V692H86V22ZM63 714H233V0H63V714Z" />
<glyph unicode="J" glyph-name="J" horiz-adv-x="574" d="M506 238Q506 117 449 51T265 -16Q202 -16 157 2T84 53T42 130T28 225V282H188Q188 244 189 216T197 170T220 142T265 132Q291 132 305 140T326 163T334 196T336 235V714H506V238ZM483 692H359V235Q359
209 356 186T343 146T315 120T265 110Q227 110 207 124T178 160T167 207T165 256V260H51V231Q51 124 102 65T265 6Q382 6 432 66T483 239V692Z" />
<glyph unicode="K" glyph-name="K" horiz-adv-x="722" d="M68 714H238V446L498 714H717L432 428L736 0H521L316 306L238 232V0H68V714ZM91 22H215V240L319 340L532 22H694L404 430L664 692H507L215 390V692H91V22Z" />
<glyph unicode="L" glyph-name="L" horiz-adv-x="593" d="M63 714H233V154H573V0H63V714ZM86 22H550V132H210V692H86V22Z" />
<glyph unicode="M" glyph-name="M" horiz-adv-x="907" d="M67 714H301L456 281H458L610 714H840V0H670V426H668L523 0H387L239 426H237V0H67V714ZM90 22H214V558H217L403 22H507L691 558H693V22H817V692H626L457 212L285 692H90V22Z" />
<glyph unicode="N" glyph-name="N" horiz-adv-x="741" d="M65 714H231L508 287H510V714H676V0H506L233 432H231V0H65V714ZM88 22H208V510L519 22H653V692H533V209L220 692H88V22Z" />
<glyph unicode="O" glyph-name="O" horiz-adv-x="778" d="M389 104Q349 104 312 119T247 166T201 245T184 357Q184 421 201 468T246 547T312 594T389 610Q429 610 466 595T531 548T577 469T594 357Q594 293 577 246T532 167T466 120T389 104ZM389 126Q420 126
452 138T511 177T554 249T571 357Q571 421 555 465T512 536T453 576T389 588Q357 588 325 576T267 537T224 465T207 357Q207 293 223 249T266 178T325 138T389 126ZM389 6Q456 6 516 29T621 98T692 208T718 357Q718 441 692 506T621 616T516 684T389 708Q321 708
262 685T157 616T86 506T60 357Q60 273 86 208T157 98T261 30T389 6ZM389 730Q465 730 529 704T641 629T714 511T741 357Q741 272 715 203T641 86T530 11T389 -16Q313 -16 249 10T137 85T64 203T37 357Q37 442 63 511T137 628T248 703T389 730Z" />
<glyph unicode="P" glyph-name="P" horiz-adv-x="667" d="M210 588H371Q385 588 407 586T450 572T486 539T501 478Q501 439 486 417T450 384T407 371T371 368H210V588ZM233 390H371Q383 390 401 391T437 401T466 428T478 478Q478 510 466 528T437 554T402 564T371
566H233V390ZM86 22H210V270H389Q440 270 482 281T555 318T603 383T621 481Q621 538 604 578T556 644T483 680T389 692H86V22ZM63 714H389Q446 714 493 700T573 658T625 585T644 481Q644 421 626 377T574 305T493 262T389 248H233V0H63V714Z" />
<glyph unicode="Q" glyph-name="Q" horiz-adv-x="778" d="M406 189L475 124Q438 104 389 104Q349 104 312 119T247 166T201 245T184 357Q184 421 201 468T246 547T312 594T389 610Q429 610 466 595T531 548T577 469T594 357Q594 297 580 252T539 176L459 248L406
189ZM457 279L535 208Q552 235 561 271T571 357Q571 421 555 465T512 536T453 576T389 588Q357 588 325 576T267 537T224 465T207 357Q207 293 223 249T266 178T325 138T389 126Q414 126 435 133L374 188L457 279ZM708 19L621 99Q667 145 692 209T718 357Q718 441
692 506T621 616T516 684T389 708Q321 708 262 685T157 616T86 506T60 357Q60 273 86 208T157 98T261 30T389 6Q482 6 556 49L654 -40L708 19ZM656 -71L554 23Q482 -16 389 -16Q313 -16 249 10T137 85T64 203T37 357Q37 442 63 511T137 628T248 703T389 730Q465
730 529 704T641 629T714 511T741 357Q741 277 718 213T653 100L740 20L656 -71Z" />
<glyph unicode="R" glyph-name="R" horiz-adv-x="722" d="M215 594H380Q396 594 420 593T467 581T506 548T522 486Q522 445 506 423T468 390T421 378T380 376H215V594ZM238 398H380Q397 398 418 399T457 409T487 435T499 486Q499 518 487 535T457 561T418 570T380
572H238V398ZM91 22H215V290H351Q385 290 414 288T465 273T500 232T517 153L520 103Q522 67 526 51T534 22H661Q656 28 652 45T643 105L638 168Q634 208 628 234T610 277T582 307T539 335V337Q543 340 560 350T597 380T631 430T646 503Q646 550 633 582T597 636T548
668T495 685T444 691T405 692H91V22ZM68 714H419Q467 714 512 704T592 671T648 608T669 511Q669 473 660 444T636 395T606 360T575 338Q623 312 640 268T661 171L666 104Q668 77 672 60T681 31T693 12T704 0H519Q511 6 506 35T497 123Q494 171 486 199T462 243T421
263T357 268H238V0H68V714Z" />
<glyph unicode="S" glyph-name="S" horiz-adv-x="648" d="M44 229Q47 181 65 141T119 70T207 23T329 6Q459 6 531 62T604 222Q604 273 583 305T533 357T472 387T418 403L303 434Q270 443 248 451T213 470T195 492T190 523Q190 550 202 567T233 596T273 611T315
616Q360 616 387 604T428 574T448 539T456 510H579Q574 559 554 596T501 658T424 695T328 708Q257 708 208 690T128 644T84 579T70 507Q70 466 83 438T118 392T166 362T218 343L381 296Q417 285 437 274T466 252T478 229T480 206Q480 177 469 157T437 124T391 104T335
98Q281 98 249 114T200 151T177 195T169 229H44ZM191 251Q192 238 195 216T212 173T255 136T335 120Q401 120 429 142T457 206Q457 236 434 250T374 275L212 321Q197 325 169 335T114 366T67 421T47 507Q47 556 66 597T122 667T211 713T328 730Q389 730 438 715T522
670T578 595T602 488H436Q434 501 431 519T415 553T380 582T315 594Q298 594 280 591T247 579T223 558T213 523Q213 499 226 487T269 466L463 413Q496 404 525 389T577 351T613 296T627 222Q627 174 611 131T560 56T468 4T329 -16Q261 -16 206 -1T111 46T48 129T21
251H191Z" />
<glyph unicode="T" glyph-name="T" horiz-adv-x="612" d="M244 22H368V582H583V692H29V582H244V22ZM221 560H6V714H606V560H391V0H221V560Z" />
<glyph unicode="U" glyph-name="U" horiz-adv-x="740" d="M63 714H233V292Q233 255 238 225T257 172T299 138T370 126Q414 126 441 138T482 172T502 224T507 292V714H677V294Q677 135 604 60T370 -16Q210 -16 137 59T63 294V714ZM86 294Q86 219 102 165T152 75T241
23T370 6Q445 6 499 23T587 75T638 164T654 294V692H530V292Q530 247 523 212T497 153T448 117T370 104Q323 104 292 116T243 153T218 212T210 292V692H86V294Z" />
<glyph unicode="V" glyph-name="V" horiz-adv-x="630" d="M-14 714H162L314 238H316L468 714H644L403 0H217L-14 714ZM233 22H388L614 692H482L315 168L148 692H16L233 22Z" />
<glyph unicode="W" glyph-name="W" horiz-adv-x="944" d="M749 0H579L473 470H471L362 0H188L-2 714H172L276 264H278L388 714H558L664 264H666L772 714H946L749 0ZM916 692H791L665 175L540 692H407L277 172L153 692H28L206 22H346L472 564L597 22H731L916 692Z" />
<glyph unicode="X" glyph-name="X" horiz-adv-x="667" d="M410 375L633 692H487L334 457L188 692H38L257 370L17 22H168L333 278L494 22H649L410 375ZM691 0H483L333 238L180 0H-24L231 370L-3 714H201L335 499L474 714H677L438 375L691 0Z" />
<glyph unicode="Y" glyph-name="Y" horiz-adv-x="666" d="M271 22H395V279L645 692H506L333 400L160 692H21L271 281V22ZM248 275L-18 714H173L333 441L493 714H684L418 275V0H248V275Z" />
<glyph unicode="Z" glyph-name="Z" horiz-adv-x="648" d="M44 22H604V132H199L592 581V692H68V582H438L44 129V22ZM21 138L390 560H45V714H615V573L249 154H627V0H21V138Z" />
<glyph unicode="[" glyph-name="bracketleft" horiz-adv-x="333" d="M91 708V-154H316V-68H191V622H316V708H91ZM68 730H339V600H214V-46H339V-176H68V730Z" />
<glyph unicode="]" glyph-name="bracketright" horiz-adv-x="333" d="M242 -154V708H17V622H142V-68H17V-154H242ZM-6 730H265V-176H-6V-46H119V600H-6V730Z" />
<glyph unicode="_" glyph-name="underscore" horiz-adv-x="500" d="M0 -75H500V-125H0V-75Z" />
<glyph unicode="`" glyph-name="grave" horiz-adv-x="260" d="M105 703H-11L111 587H181L105 703ZM-66 725H116L221 565H102L-66 725Z" />
<glyph unicode="a" glyph-name="a" horiz-adv-x="574" d="M524 90Q524 61 530 39T545 0H384Q379 6 376 18T373 40Q359 29 345 20T312 3T269 -9T210 -14Q147 -14 111 4T55 48T30 99T24 143Q24 198 46 230T104 280T180 305T260 317Q297 321 319 324T353 333T369
348T373 374Q373 400 347 412T291 424Q260 424 242 418T215 401T202 376T197 345H46V355Q46 370 52 400T84 461T158 515T292 538Q350 538 389 529T455 505T495 472T515 434T523 397T524 366V90ZM501 363Q501 382 498 408T475 458T412 499T289 516Q217 516 174 498T107
456T77 409T69 376V367H176Q176 370 179 382T193 409T225 434T284 446Q293 446 312 445T349 437T382 414T396 370Q396 352 392 340T374 320T335 307T270 297Q217 291 176 283T106 259T62 216T47 146Q47 94 69 66T121 25T179 10T220 8Q271 8 311 28T396 80Q396 76
396 67Q396 59 396 50T398 33T402 22H512Q508 30 505 47T501 93V363ZM392 199Q392 167 381 143T351 104T308 80T257 72Q210 72 186 93T161 151Q161 173 168 188T187 213T212 228T238 235L294 244Q319 248 334 251T360 258T378 263T392 269V199ZM369 238Q360 235
353 234T338 230T317 226T283 220Q255 215 236 211T206 200T189 181T184 149Q184 123 204 109T257 94Q302 94 335 119T369 192V238Z" />
<glyph unicode="b" glyph-name="b" horiz-adv-x="611" d="M179 262Q179 313 191 346T223 400T265 428T312 436Q334 436 358 428T401 400T432 347T445 262Q445 211 433 178T401 124T358 96T312 88Q289 88 266 96T223 124T192 177T179 262ZM202 262Q202 216 212
187T238 140T273 117T312 110Q331 110 350 116T386 140T412 186T422 262Q422 308 412 337T386 384T351 407T312 414Q293 414 274 408T238 384T212 338T202 262ZM52 714H207V481Q216 489 228 499T258 517T301 532T361 538Q397 538 436 523T508 475T561 390T582 262Q582
200 565 149T518 62T445 6T351 -14Q306 -14 269 -2T202 41V0H52V714ZM75 22H179V95H181Q188 84 201 70T233 41T279 18T342 8Q403 8 444 32T511 94T548 177T559 262Q559 340 537 389T484 467T419 505T361 516Q334 516 312 512T269 499T228 475T184 435V692H75V22Z"
/>
<glyph unicode="c" glyph-name="c" horiz-adv-x="574" d="M412 191Q402 142 373 115T293 88Q270 88 248 96T207 123T178 175T166 257Q166 270 168 299T182 359T222 413T299 436Q342 436 369 414T405 347H519Q502 435 445 475T299 516Q237 516 191 495T114 438T68
357T52 262Q52 196 72 148T126 69T203 23T293 8Q339 8 378 21T448 59T496 117T520 191H412ZM387 325Q385 364 365 389T299 414Q267 414 246 402T213 368T195 318T189 257Q189 225 195 199T213 152T246 121T293 110Q320 110 337 117T366 138T383 171T394 213H545Q541
153 518 110T460 40T382 -1T293 -14Q231 -14 182 6T99 63T47 150T29 262Q29 323 48 373T103 460T188 517T299 538Q356 538 400 522T475 478T523 410T542 325H387Z" />
<glyph unicode="d" glyph-name="d" horiz-adv-x="611" d="M432 262Q432 211 420 178T388 124T345 96T299 88Q276 88 253 96T210 124T179 177T166 262Q166 313 178 346T210 400T252 428T299 436Q321 436 345 428T388 400T419 347T432 262ZM409 262Q409 308 399
337T373 384T338 407T299 414Q280 414 261 408T225 384T199 338T189 262Q189 216 199 187T225 140T260 117T299 110Q318 110 337 116T373 140T399 186T409 262ZM559 0H409V41Q380 10 343 -2T260 -14Q209 -14 167 6T94 62T46 149T29 262Q29 337 50 389T103 475T174
523T250 538Q284 538 309 532T352 518T382 499T404 481V714H559V0ZM536 692H427V435Q403 459 383 474T343 499T300 512T250 516Q226 516 193 506T128 467T74 390T52 262Q52 222 63 177T99 95T166 33T269 8Q305 8 331 17T377 41T409 69T430 95H432V22H536V692Z"
/>
<glyph unicode="e" glyph-name="e" horiz-adv-x="593" d="M412 145Q397 119 369 104T303 88Q255 88 228 106T187 148T170 197T166 236H541Q539 293 526 343T484 432T412 493T303 516Q247 516 201 497T122 443T71 361T52 257Q52 212 65 168T108 88T186 30T303 8Q319
8 348 11T410 28T474 69T525 145H412ZM556 167Q547 132 527 99T476 41T401 1T303 -14Q221 -14 168 13T84 81T41 168T29 253Q29 317 49 369T106 459T193 517T303 538Q375 538 425 512T506 442T550 340T564 219V214H189Q191 203 195 186T211 151T244 122T303 110Q329
110 345 115T371 129T386 148T396 167H556ZM404 328Q393 365 370 389T303 414Q271 414 251 405T218 383T200 355T189 328H404ZM166 306Q171 369 207 402T303 436Q343 436 366 421T403 384T420 340T427 306H166Z" />
<glyph unicode="f" glyph-name="f" horiz-adv-x="352" d="M2 524H84V559Q84 611 99 641T141 688T206 709T293 714H350V590H282Q274 590 267 590T253 586T243 576T239 557V524H334V410H239V0H84V410H2V524ZM25 432H107V22H216V432H311V502H216V546Q216 582 227
597T271 612H327V692H267Q216 692 185 683T136 656T113 609T107 541V502H25V432Z" />
<glyph unicode="g" glyph-name="g" horiz-adv-x="611" d="M559 73Q559 53 558 26T548 -29T524 -86T480 -135T408 -170T302 -184Q235 -184 190 -171T117 -135T76 -79T58 -8H213Q213 -26 221 -38T242 -59T271 -70T302 -74Q362 -74 385 -47T408 34V67Q401 61 388
53T357 36T315 22T262 16Q254 16 235 18T191 28T140 52T92 97T56 171T42 280Q42 332 57 378T102 460T174 517T273 538Q311 538 349 523T408 483V524H559V73ZM536 502H431V429Q402 467 364 491T274 516Q232 516 195 501T128 456T82 379T65 269Q65 205 83 161T130
90T194 50T263 38Q312 38 351 56T431 112V47Q431 12 425 -14T405 -59T365 -86T302 -96Q272 -96 253 -89T222 -72T204 -50T195 -30H85Q87 -46 94 -68T124 -112T188 -147T302 -162Q360 -162 400 -149T467 -115T507 -68T527 -16T535 34T536 75V502ZM302 436Q336 436
360 423T400 387T423 337T431 277Q431 246 424 218T400 167T360 132T302 118Q269 118 245 131T205 167T182 217T174 277Q174 308 181 336T204 387T244 422T302 436ZM302 414Q273 414 253 402T221 371T203 327T197 277Q197 252 202 228T220 184T253 152T302 140Q331
140 351 152T384 183T402 227T408 277Q408 302 403 326T385 370T352 402T302 414Z" />
<glyph unicode="h" glyph-name="h" horiz-adv-x="593" d="M75 22H184V269Q184 304 190 332T211 381T249 413T308 424Q346 424 366 411T396 379T407 342T409 313V22H518V354Q518 431 476 473T356 516Q301 516 260 492T184 427V692H75V22ZM52 714H207V478Q272 538
356 538Q444 538 492 489T541 354V0H386V299Q386 313 385 331T377 364T353 391T308 402Q277 402 258 391T227 361T211 318T207 269V0H52V714Z" />
<glyph unicode="i" glyph-name="i" horiz-adv-x="259" d="M52 524H207V0H52V524ZM75 22H184V502H75V22ZM52 714H207V578H52V714ZM75 600H184V692H75V600Z" />
<glyph unicode="j" glyph-name="j" horiz-adv-x="278" d="M63 714H218V578H63V714ZM86 600H195V692H86V600ZM63 524H218V-23Q218 -44 215 -72T195 -125T145 -167T54 -184H-22V-54H6Q36 -54 49 -45T63 -4V524ZM86 -22Q86 -51 67 -63T19 -76H1V-162H40Q89 -162 119
-152T167 -123T189 -78T195 -19V502H86V-22Z" />
<glyph unicode="k" glyph-name="k" horiz-adv-x="574" d="M85 22H194V184L266 253L410 22H545L343 328L518 502H390L194 302V692H85V22ZM62 714H217V354L380 524H572L371 325L588 0H397L262 219L217 175V0H62V714Z" />
<glyph unicode="l" glyph-name="l" horiz-adv-x="259" d="M75 22H184V692H75V22ZM52 714H207V0H52V714Z" />
<glyph unicode="m" glyph-name="m" horiz-adv-x="889" d="M50 524H205V478Q270 538 354 538Q387 538 410 531T450 512T477 488T496 465Q515 484 531 498T566 521T605 534T654 538Q742 538 790 489T839 354V0H684V299Q684 313 683 331T675 364T651 391T606 402Q595
402 581 399T553 385T531 355T522 304V0H367V314Q367 354 352 378T293 402Q267 402 250 391T223 361T209 318T205 269V0H50V524ZM73 22H182V269Q182 339 207 381T293 424Q329 424 349 412T378 383T388 347T390 314V22H499V282Q499 296 500 320T512 367T544 407T606
424Q644 424 664 411T694 379T705 342T707 313V22H816V354Q816 431 774 473T654 516Q626 516 604 510T563 493T527 467T491 431Q482 446 471 461T445 489T408 508T354 516Q299 516 258 492T182 427V502H73V22Z" />
<glyph unicode="n" glyph-name="n" horiz-adv-x="593" d="M75 22H184V269Q184 304 190 332T211 381T249 413T308 424Q346 424 366 411T396 379T407 342T409 313V22H518V354Q518 431 476 473T356 516Q301 516 260 492T184 427V502H75V22ZM52 524H207V478Q272 538
356 538Q444 538 492 489T541 354V0H386V299Q386 313 385 331T377 364T353 391T308 402Q277 402 258 391T227 361T211 318T207 269V0H52V524Z" />
<glyph unicode="o" glyph-name="o" horiz-adv-x="612" d="M306 516Q251 516 206 499T127 450T76 370T58 262Q58 202 76 155T127 75T205 25T306 8Q361 8 406 25T485 74T536 154T554 262Q554 322 536 369T485 449T407 499T306 516ZM306 538Q370 538 420 518T506
461T559 373T577 262Q577 202 559 151T506 64T421 7T306 -14Q241 -14 191 6T106 63T53 151T35 262Q35 322 53 373T106 460T191 517T306 538ZM306 414Q268 414 246 395T212 351T198 300T195 262Q195 249 198 224T212 174T245 129T306 110Q344 110 366 129T399 173T414
224T417 262Q417 275 414 300T400 350T366 395T306 414ZM306 436Q343 436 368 421T410 381T433 325T440 262Q440 230 433 199T410 143T369 103T306 88Q269 88 244 103T202 143T179 199T172 262Q172 294 179 325T202 381T243 421T306 436Z" />
<glyph unicode="p" glyph-name="p" horiz-adv-x="611" d="M179 262Q179 313 191 346T223 400T265 428T312 436Q334 436 358 428T401 400T432 347T445 262Q445 211 433 178T401 124T358 96T312 88Q289 88 266 96T223 124T192 177T179 262ZM202 262Q202 216 212
187T238 140T273 117T312 110Q331 110 350 116T386 140T412 186T422 262Q422 308 412 337T386 384T351 407T312 414Q293 414 274 408T238 384T212 338T202 262ZM52 524H202V483Q231 514 268 526T351 538Q402 538 444 518T517 462T565 375T582 262Q582 187 561 135T508
49T437 1T361 -14Q326 -14 301 -8T258 6T228 25T207 43V-176H52V524ZM75 -154H184V89Q208 65 228 50T268 25T311 12T361 8Q385 8 418 18T483 57T537 134T559 262Q559 302 548 347T512 429T445 491T342 516Q306 516 280 507T234 483T201 454T181 429H179V502H75V-154Z"
/>
<glyph unicode="q" glyph-name="q" horiz-adv-x="611" d="M432 262Q432 211 420 178T388 124T345 96T299 88Q276 88 253 96T210 124T179 177T166 262Q166 313 178 346T210 400T252 428T299 436Q321 436 345 428T388 400T419 347T432 262ZM409 262Q409 308 399
337T373 384T338 407T299 414Q280 414 261 408T225 384T199 338T189 262Q189 216 199 187T225 140T260 117T299 110Q318 110 337 116T373 140T399 186T409 262ZM559 -176H404V43Q395 35 383 25T352 7T309 -8T250 -14Q214 -14 175 1T103 49T50 134T29 262Q29 324
46 375T93 462T166 518T260 538Q305 538 342 526T409 483V524H559V-176ZM536 502H432V429H430Q422 439 410 454T378 483T332 506T269 516Q208 516 167 492T100 430T63 347T52 262Q52 184 74 135T127 57T192 19T250 8Q277 8 299 12T342 25T383 49T427 89V-154H536V502Z"
/>
<glyph unicode="r" glyph-name="r" horiz-adv-x="389" d="M75 22H184V222Q184 233 184 251T189 291T202 333T227 372T268 401T329 412Q337 412 343 412T358 410V513Q352 515 347 515T334 516Q306 516 284 506T242 481T208 448T180 413V502H75V22ZM52 524H203V473Q214
485 226 496T256 517T295 532T349 538Q364 538 381 534V383Q367 386 358 388T335 390Q291 390 266 373T227 331T211 276T207 222V0H52V524Z" />
<glyph unicode="s" glyph-name="s" horiz-adv-x="537" d="M348 355Q347 364 345 375T335 398T310 416T263 424Q232 424 212 415T192 386Q192 372 202 364T229 349T271 338T323 327Q352 320 385 311T446 285T492 240T511 166Q511 152 505 123T473 63T399 9T265
-14Q188 -14 141 6T69 57T35 121T26 182H176Q176 171 178 157T189 130T219 108T277 100Q309 100 332 112T356 150Q356 175 336 183T274 201Q221 213 178 224T103 254T54 300T37 373Q37 445 94 491T266 538Q289 538 327 533T403 510Q436 494 454 473T482 430T493
388T495 355H348ZM472 377Q468 425 443 452T386 494T319 512T263 516Q209 516 171 505T108 473T72 427T60 371Q60 335 74 312T114 273T179 247T268 224Q299 217 320 212T355 199T373 180T379 150Q379 118 353 98T280 78Q268 78 248 79T209 88T174 112T154 160H49Q53
107 79 77T139 31T209 12T266 8Q309 8 349 16T420 43T469 92T488 168Q488 205 473 228T432 267T376 290T311 306Q270 315 243 321T200 336T176 356T169 385Q169 409 191 427T262 446Q295 446 315 439T345 421T360 398T367 377H472Z" />
<glyph unicode="t" glyph-name="t" horiz-adv-x="370" d="M2 524H88V678H243V524H348V410H243V171Q243 139 252 132T281 124H348V0Q301 -6 256 -6Q218 -6 187 -2T134 17T100 57T88 125V410H2V524ZM25 432H111V134Q111 101 117 79T140 42T183 22T252 16Q270 16
288 17T325 21V102H279Q257 102 245 108T228 125T221 148T220 171V432H325V502H220V656H111V502H25V432Z" />
<glyph unicode="u" glyph-name="u" horiz-adv-x="593" d="M518 502H409V255Q409 220 403 192T382 143T344 111T285 100Q247 100 227 113T197 145T186 182T184 211V502H75V170Q75 93 117 51T237 8Q292 8 333 32T409 97V22H518V502ZM541 0H386V46Q321 -14 237 -14Q149
-14 101 35T52 170V524H207V225Q207 211 208 193T216 160T240 133T285 122Q316 122 335 133T366 163T382 205T386 255V524H541V0Z" />
<glyph unicode="v" glyph-name="v" horiz-adv-x="520" d="M-8 524H162L260 198H262L368 524H528L345 0H175L-8 524ZM497 502H384L260 134L146 502H23L191 22H329L497 502Z" />
<glyph unicode="w" glyph-name="w" horiz-adv-x="814" d="M2 524H168L251 225H253L328 524H486L561 225H563L646 524H812L645 0H479L408 285H406L335 0H169L2 524ZM185 22H319L407 369L495 22H629L782 502H665L562 138L468 502H346L252 138L149 502H32L185 22Z" />
<glyph unicode="x" glyph-name="x" horiz-adv-x="536" d="M3 524H185L269 402L354 524H530L358 279L550 0H368L267 149L168 0H-14L176 275L3 524ZM204 275L31 22H155L267 191L380 22H507L331 279L488 502H367L269 360L170 502H46L204 275Z" />
<glyph unicode="y" glyph-name="y" horiz-adv-x="519" d="M191 43Q197 28 197 10Q197 -19 186 -34T160 -57T129 -66T100 -68H62V-154H140Q160 -154 181 -152T224 -139T264 -104T300 -36L501 502H387L262 128L139 502H18L191 43ZM-14 524H156L263 196H265L371 524H533L323
-41Q304 -92 280 -119T229 -159T177 -174T129 -176H39V-46H89Q104 -46 119 -45T146 -39T166 -23T174 10Q174 19 172 27T166 46L-14 524Z" />
<glyph unicode="z" glyph-name="z" horiz-adv-x="519" d="M43 22H476V108H183L461 418V502H61V422H317L43 110V22ZM20 118L269 400H38V524H484V410L235 130H499V0H20V118Z" />
<glyph unicode="{" glyph-name="braceleft" horiz-adv-x="333" d="M30 317Q56 318 70 330T92 362T100 411T102 472V606Q102 672 125 701T190 730H348V600H300Q285 600 275 597T259 585T251 557T248 508V425Q248 384 241 357T224 312T201 287T176 278V276Q188 275
200 268T223 243T241 198T248 129V35Q248 8 250 -8T259 -32T275 -43T300 -46H348V-176H190Q156 -176 129 -147T102 -52V82Q102 115 101 143T92 191T71 224T30 237V317ZM53 258Q75 257 89 244T111 209T122 160T125 103V-42Q125 -74 131 -95T148 -130T175 -148T213
-154H325V-68H277Q264 -68 254 -65T238 -51T228 -22T225 25V119Q225 160 218 188T201 234T178 262T153 277Q165 282 177 292T200 320T218 366T225 435V529Q225 558 228 576T237 604T254 618T277 622H325V708H213Q171 708 148 684T125 596V451Q125 422 122 395T111
346T89 311T53 296V258Z" />
<glyph unicode="}" glyph-name="braceright" horiz-adv-x="333" d="M-15 730H143Q177 730 204 701T231 606V472Q231 439 232 411T241 363T262 330T303 317V237Q277 236 263 224T241 192T233 143T231 82V-52Q231 -118 208 -147T143 -176H-15V-46H33Q48 -46 58 -43T74
-31T82 -3T85 46V129Q85 170 92 197T109 242T132 267T157 276V278Q145 279 133 286T110 311T92 356T85 425V519Q85 546 83 562T74 586T58 597T33 600H-15V730ZM280 296Q258 297 244 310T222 345T211 394T208 451V596Q208 660 185 684T120 708H8V622H56Q69 622 79
619T95 605T105 576T108 529V435Q108 394 115 366T132 320T155 292T180 277Q168 272 156 262T133 234T115 188T108 119V25Q108 -4 105 -22T96 -50T79 -64T56 -68H8V-154H120Q141 -154 157 -149T185 -130T202 -96T208 -42V103Q208 132 211 159T222 208T244 243T280
258V296Z" />
</font>
</defs>
</svg>
